<?xml version="1.0" encoding="UTF-8"?>
<svg version="1.1" xmlns="http://www.w3.org/2000/svg" width="1024" height="512">
<path d="M0 0 C0 12.21 0 24.42 0 37 C-2.97 38.05058594 -5.94 39.10117188 -9 40.18359375 C-18.16477578 43.42751447 -27.32323668 46.68891161 -36.47790527 49.96124268 C-40.78369877 51.49957839 -45.08987846 53.03599574 -49.40625 54.54443359 C-52.77652358 55.72271283 -56.13911901 56.92026438 -59.5 58.125 C-60.42683594 58.44138428 -61.35367188 58.75776855 -62.30859375 59.08374023 C-68.83487935 61.46259145 -71.73572423 64.29482146 -75.375 70.25 C-76.5343925 75.351327 -76.4321038 80.52554217 -73.765625 85.1328125 C-70.98882705 88.55371306 -68.41180521 91.07659891 -64 92 C-56.08954576 92.59686625 -50.19465654 90.66538193 -42.8515625 87.84375 C-41.71721771 87.42202515 -40.58287292 87.00030029 -39.41415405 86.5657959 C-35.81245613 85.22425269 -32.21856034 83.86317423 -28.625 82.5 C-25.00883725 81.1402767 -21.3911864 79.78472252 -17.77157593 78.4342041 C-15.52450684 77.59454332 -13.27964973 76.7489344 -11.03726196 75.89685059 C-10.02545868 75.5164563 -9.0136554 75.13606201 -7.97119141 74.74414062 C-7.08122467 74.40660767 -6.19125793 74.06907471 -5.27432251 73.72131348 C-3 73 -3 73 0 73 C0 84.88 0 96.76 0 109 C-13.81339385 114.75558077 -13.81339385 114.75558077 -20.46875 117.078125 C-21.19694946 117.33503113 -21.92514893 117.59193726 -22.67541504 117.85662842 C-24.18700858 118.38912067 -25.69917542 118.91998834 -27.21191406 119.44921875 C-29.52554438 120.25893999 -31.83709503 121.07439871 -34.1484375 121.890625 C-35.63009146 122.41179072 -37.11185816 122.93263607 -38.59375 123.453125 C-39.2791687 123.69476379 -39.9645874 123.93640259 -40.67077637 124.18536377 C-53.62293316 128.70751959 -68.11988344 128.95014277 -80.88671875 123.609375 C-94.84568849 116.39344585 -103.33235325 106.54198838 -109 92 C-109.268125 91.32453125 -109.53625 90.6490625 -109.8125 89.953125 C-113.70891204 77.72272055 -111.16934155 63.44682165 -105.64453125 52.25390625 C-98.54011771 39.74023414 -89.41823604 32.39966667 -76.03955078 27.12207031 C-75.38783464 26.86491871 -74.73611851 26.60776711 -74.0646534 26.34282303 C-67.21217922 23.6576894 -60.29664106 21.15057135 -53.3671875 18.671875 C-52.03287593 18.19225553 -50.69865963 17.71237096 -49.36453247 17.23223877 C-45.90523913 15.98794113 -42.44487495 14.74665205 -38.98419189 13.50622559 C-33.41280249 11.5086704 -27.84308586 9.50645654 -22.2734108 7.5041275 C-20.34333691 6.81075958 -18.41278374 6.11874045 -16.48214722 5.42694092 C-15.30967438 5.00600159 -14.13720154 4.58506226 -12.92919922 4.15136719 C-11.9018869 3.783078 -10.87457458 3.41478882 -9.81613159 3.03533936 C-7.94836717 2.34866334 -6.09359887 1.62547872 -4.25442505 0.86553955 C-2 0 -2 0 0 0 Z " fill="#02AAFE" transform="translate(514,97)"/>
<path d="M0 0 C11.17030272 8.40229516 18.47044164 19.14765661 21 33 C22.4724193 47.64084854 20.00062782 61.59996345 11.0625 73.6015625 C2.90904621 83.24010966 -5.99147138 87.79181093 -17.6015625 92.0546875 C-19.16598335 92.63493935 -19.16598335 92.63493935 -20.76200867 93.22691345 C-24.17275375 94.48987339 -27.58615968 95.7454328 -31 97 C-32.15970306 97.42759613 -33.31940613 97.85519226 -34.51425171 98.29574585 C-41.71926966 100.95222177 -48.92957034 103.59386017 -56.14428711 106.22387695 C-58.6281585 107.13030403 -61.11134494 108.03838394 -63.59350586 108.94946289 C-67.2335426 110.28553232 -70.87639435 111.61381187 -74.51953125 112.94140625 C-76.1879583 113.55526939 -76.1879583 113.55526939 -77.89009094 114.18153381 C-78.91354111 114.55289963 -79.93699127 114.92426544 -80.99145508 115.30688477 C-81.88947342 115.63503677 -82.78749176 115.96318878 -83.71272278 116.30128479 C-86 117 -86 117 -89 117 C-89 105.45 -89 93.9 -89 82 C-75.5081306 76.37838775 -75.5081306 76.37838775 -70.86767578 74.75170898 C-69.82684845 74.38460312 -68.78602112 74.01749725 -67.71365356 73.63926697 C-66.63510101 73.26201981 -65.55654846 72.88477264 -64.4453125 72.49609375 C-62.09625289 71.66499975 -59.74729754 70.83361099 -57.3984375 70.00195312 C-53.74599545 68.71275445 -50.09268705 67.42617207 -46.4375 66.14477539 C-42.8749637 64.89422429 -39.31619758 63.63340006 -35.7578125 62.37109375 C-34.66711456 61.99182236 -33.57641663 61.61255096 -32.45266724 61.2217865 C-24.73028922 58.47146986 -18.81205045 55.95073953 -14 49 C-12.21183034 43.63549101 -12.31165848 38.89615476 -14.5625 33.75 C-16.8271587 29.70539902 -19.57953952 27.40723292 -24 26 C-30.35326983 24.69864746 -34.27749503 25.29236308 -40.25 27.625 C-41.98041283 28.26447424 -43.71088722 28.90378195 -45.44140625 29.54296875 C-46.43930176 29.91856934 -47.43719727 30.29416992 -48.46533203 30.68115234 C-55.19024738 33.19033819 -61.94923063 35.60637368 -68.70178223 38.03997803 C-71.17705167 38.9337274 -73.65073844 39.83173219 -76.12402344 40.73095703 C-76.89992325 41.01247116 -77.67582306 41.29398529 -78.47523499 41.58403015 C-79.95356415 42.12044322 -81.4314753 42.65801005 -82.90892029 43.19685364 C-87.8872195 45 -87.8872195 45 -89 45 C-89 33.12 -89 21.24 -89 9 C-58.31870672 -2.28191053 -58.31870672 -2.28191053 -48.9375 -5.625 C-48.28595947 -5.85977051 -47.63441895 -6.09454102 -46.96313477 -6.33642578 C-30.94879773 -11.99768932 -14.01739807 -9.39288991 0 0 Z " fill="#FED100" transform="translate(604,124)"/>
<path d="M0 0 C2.31243792 -0.02685412 4.6249627 -0.04632841 6.9375 -0.0625 C8.22527344 -0.07410156 9.51304687 -0.08570313 10.83984375 -0.09765625 C14 0 14 0 15 1 C15.10193126 2.58409818 15.13569124 4.17264744 15.1418457 5.76000977 C15.14888016 6.7751918 15.15591461 7.79037384 15.16316223 8.83631897 C15.16732651 9.94349777 15.17149078 11.05067657 15.17578125 12.19140625 C15.1989924 14.52149328 15.22311025 16.85157142 15.24804688 19.18164062 C15.28308492 22.86602605 15.31245461 26.55008785 15.32592773 30.23461914 C15.34145466 33.78311857 15.3817135 37.33066115 15.42578125 40.87890625 C15.42387283 41.97191544 15.42196442 43.06492462 15.41999817 44.1910553 C15.54381839 51.97910135 16.68862424 57.5991276 22.3125 63.375 C28.2471104 66.96336908 34.48643763 67.99609652 41.265625 66.5 C46.35352241 65.01743387 49.72259641 63.33774005 53 59 C56.1330722 52.28757081 56.46802525 46.4082413 56.51171875 39.0625 C56.52966995 37.94182129 56.54762115 36.82114258 56.56611633 35.66650391 C56.62000344 32.11104009 56.6540464 28.55570889 56.6875 25 C56.72069205 22.57940872 56.75518345 20.15883489 56.79101562 17.73828125 C56.87571751 11.82563979 56.94415838 5.91298071 57 0 C59.31243792 -0.02685412 61.6249627 -0.04632841 63.9375 -0.0625 C65.22527344 -0.07410156 66.51304687 -0.08570313 67.83984375 -0.09765625 C71 0 71 0 72 1 C72.11650814 3.7414746 72.16801612 6.45808757 72.17700195 9.20068359 C72.18357315 10.06098175 72.19014435 10.92127991 72.19691467 11.80764771 C72.21671367 14.67124512 72.22833041 17.5347897 72.23828125 20.3984375 C72.24235678 21.37672138 72.2464323 22.35500526 72.25063133 23.36293411 C72.2715291 28.5497339 72.28580964 33.73650701 72.29516602 38.92333984 C72.30618414 44.26399615 72.34051989 49.60423045 72.38033772 54.94473839 C72.40659412 59.06280244 72.41486629 63.18076786 72.41844749 67.29890823 C72.42329723 69.26593471 72.43486483 71.23295726 72.45348549 73.19990158 C72.57004248 86.33842085 72.64890651 98.15862713 62.98046875 108.21875 C53.04452615 117.15521908 43.35456859 119.78987648 30.16796875 119.34765625 C19.48698429 118.67360181 11.31543335 113.5161617 4 106 C5.24727575 102.25817274 6.50436897 101.71693909 9.8125 99.6875 C11.12154297 98.85798828 11.12154297 98.85798828 12.45703125 98.01171875 C15 97 15 97 17.04296875 97.66796875 C17.68878906 98.10753906 18.33460938 98.54710937 19 99 C27.1861019 103.89386527 33.85160662 105.35531619 43.328125 103.55859375 C48.62367304 101.95173852 52.13738117 98.69505955 55 94 C56.96746414 89.34056634 57.25071013 85.11472532 57.125 80.125 C57.11597656 79.43664062 57.10695313 78.74828125 57.09765625 78.0390625 C57.07432513 76.35922162 57.03846326 74.67956254 57 73 C56.48953125 73.39832031 55.9790625 73.79664063 55.453125 74.20703125 C47.31605891 80.13670175 38.07853216 82.97534182 28 82 C18.9067648 80.21992133 11.10966823 76.39611384 5.625 68.75 C0.0611857 60.35547317 -0.42684155 50.97716519 -0.29296875 41.2109375 C-0.28872391 40.02650055 -0.28447906 38.8420636 -0.28010559 37.62173462 C-0.26343533 33.87258287 -0.22580413 30.12398679 -0.1875 26.375 C-0.17243814 23.81901823 -0.15875237 21.26302796 -0.14648438 18.70703125 C-0.11357002 12.4711675 -0.06348779 6.23562347 0 0 Z " fill="#0C0B92" transform="translate(298,296)"/>
<path d="M0 0 C0.144375 -1.134375 0.28875 -2.26875 0.4375 -3.4375 C1 -7 1 -7 2 -8 C6.62 -8 11.24 -8 16 -8 C16 18.07 16 44.14 16 71 C11.05 71 6.1 71 1 71 C0.505 67.535 0.505 67.535 0 64 C-0.556875 64.39832031 -1.11375 64.79664063 -1.6875 65.20703125 C-11.07572017 71.72486654 -20.46584259 74.99588486 -32 74 C-43.22993049 71.94198965 -52.96695861 67.18717779 -60 58 C-66.89626575 46.73398829 -70.37051688 35.1519962 -67.28125 21.921875 C-65.27356881 16.12550512 -62.53005586 11.00187069 -59 6 C-58.443125 5.154375 -57.88625 4.30875 -57.3125 3.4375 C-41.30243614 -13.43797272 -18.02653186 -13.97405571 0 0 Z M-47 15 C-51.77963828 22.39988075 -52.75361806 29.3656902 -52 38 C-50.07813086 45.43277101 -45.32059521 51.83278402 -39.15625 56.3515625 C-32.32727858 60.2418372 -24.45241485 60.87449051 -16.875 59.0625 C-9.67569049 56.5404489 -3.97573273 51.46392857 -0.5 44.6875 C2.60018858 37.06620306 3.63030992 29.08193543 0.4375 21.25 C-3.53359642 13.57254692 -8.81331527 7.98771793 -17 5 C-28.99503746 1.52283933 -38.96913997 5.95522378 -47 15 Z " fill="#0A0991" transform="translate(791,304)"/>
<path d="M0 0 C7.42662503 6.70178643 12.02298595 14.52944382 14.44140625 24.203125 C14.44140625 28.493125 14.44140625 32.783125 14.44140625 37.203125 C-7.66859375 37.203125 -29.77859375 37.203125 -52.55859375 37.203125 C-50.48516687 47.01831961 -50.48516687 47.01831961 -44.55859375 54.203125 C-37.68205665 58.57417303 -30.78161323 61.16407886 -22.55859375 60.203125 C-15.4354679 58.48196213 -10.42592529 55.85434922 -5.41015625 50.49609375 C-3.55859375 49.203125 -3.55859375 49.203125 -1.1015625 49.34375 C1.4835043 50.21735168 3.48192395 51.26380619 5.75390625 52.765625 C6.45128906 53.22066406 7.14867187 53.67570312 7.8671875 54.14453125 C8.38667969 54.49386719 8.90617188 54.84320313 9.44140625 55.203125 C6.09921092 63.31472341 -3.18659632 68.01687924 -10.8984375 71.23828125 C-23.41368655 75.77758597 -35.45164387 74.96512515 -47.68359375 69.578125 C-58.90756095 63.3244385 -65.08718138 54.20896064 -69.22265625 42.2890625 C-71.04691054 30.96171611 -70.26139237 19.52505651 -63.98046875 9.74609375 C-56.45204944 -0.47831355 -46.76922522 -7.4737684 -34.046875 -9.51171875 C-21.20577821 -10.98330441 -10.25990747 -8.06455609 0 0 Z M-46.55859375 10.203125 C-50.38995433 15.06396473 -51.81510643 19.10091936 -53.55859375 25.203125 C-36.72859375 25.203125 -19.89859375 25.203125 -2.55859375 25.203125 C-5.50281281 16.37046781 -7.90625942 10.25932903 -16.24609375 5.75 C-27.28159023 1.39710972 -37.27589779 2.5706861 -46.55859375 10.203125 Z " fill="#0C0B92" transform="translate(657.55859375,303.796875)"/>
<path d="M0 0 C7.18268071 4.81690812 12.25020824 11.36868913 14.57687378 19.73342896 C15.49791027 24.66716866 15.23954439 29.71459061 15.1953125 34.71484375 C15.1924826 35.92572159 15.18965271 37.13659943 15.18673706 38.38417053 C15.1755803 42.23538268 15.15048355 46.08635864 15.125 49.9375 C15.1149644 52.55533517 15.10583956 55.17317401 15.09765625 57.79101562 C15.07565563 64.19410083 15.04115642 70.59701042 15 77 C10.05 77 5.1 77 0 77 C-0.01458252 75.49171631 -0.02916504 73.98343262 -0.04418945 72.42944336 C-0.1022909 66.81771489 -0.1795239 61.20638269 -0.26245117 55.5949707 C-0.29564466 53.16925502 -0.32369384 50.74346314 -0.34643555 48.31762695 C-0.38008331 44.82470316 -0.43240631 41.33247415 -0.48828125 37.83984375 C-0.49467117 36.76041 -0.5010611 35.68097626 -0.50764465 34.5688324 C-0.64388618 27.54461302 -1.37924174 22.49434435 -5.6875 16.75 C-10.53561984 13.08115255 -15.91846607 11.44093082 -21.9921875 11.71484375 C-28.3601291 12.61924012 -33.63983986 15.23424357 -38 20 C-40.99225873 26.90527484 -41.46310332 33.82880774 -41.51171875 41.2578125 C-41.52966995 42.28687714 -41.54762115 43.31594177 -41.56611633 44.37619019 C-41.61979837 47.62575319 -41.65397923 50.87517294 -41.6875 54.125 C-41.72071027 56.34376976 -41.75520329 58.56252071 -41.79101562 60.78125 C-41.87550035 66.18739589 -41.9425111 71.59350239 -42 77 C-46.95 77 -51.9 77 -57 77 C-57.02255146 66.84733453 -57.04091534 56.69468557 -57.05181217 46.54200077 C-57.05704089 41.82820267 -57.06413834 37.11442253 -57.07543945 32.40063477 C-57.08626873 27.85544596 -57.09227692 23.31027448 -57.09487724 18.76507378 C-57.09673142 17.02705042 -57.10035189 15.28902806 -57.10573006 13.55101204 C-57.11294103 11.12521405 -57.11399092 8.69948854 -57.11352539 6.27368164 C-57.11712067 5.54791931 -57.12071594 4.82215698 -57.12442017 4.07440186 C-57.11405216 -0.88594784 -57.11405216 -0.88594784 -56 -2 C-53.64686445 -2.07271741 -51.29166332 -2.08370868 -48.9375 -2.0625 C-47.64714844 -2.05347656 -46.35679687 -2.04445313 -45.02734375 -2.03515625 C-44.02832031 -2.02355469 -43.02929688 -2.01195312 -42 -2 C-41.67 0.97 -41.34 3.94 -41 7 C-39.865625 6.0925 -38.73125 5.185 -37.5625 4.25 C-25.7847855 -4.59897555 -13.37886697 -6.69931448 0 0 Z " fill="#0C0B92" transform="translate(440,298)"/>
<path d="M0 0 C0 4.36795404 -0.22762148 4.74658993 -3 7.75 C-3.556875 8.36359375 -4.11375 8.9771875 -4.6875 9.609375 C-5.120625 10.06828125 -5.55375 10.5271875 -6 11 C-9.22210612 9.75273311 -12.36141053 8.37842171 -15.5 6.9375 C-23.30416716 3.47327398 -30.15635713 3.00910299 -38.203125 6.05078125 C-40.24057259 7.12708508 -41.52095964 8.23652881 -43 10 C-44.03760061 13.40925916 -44.24166576 15.30722481 -43.0625 18.6875 C-37.36660697 25.07380431 -26.01601073 25.4788749 -18.01953125 26.84179688 C-9.86251478 28.39131906 -1.49346049 31.14496795 3.625 38.125 C6.31786511 43.9616885 6.0247109 50.76717312 4.1171875 56.78515625 C0.56397393 64.58575425 -4.2234012 69.00501237 -12.0625 72.3125 C-24.50360692 76.82123198 -37.144856 75.62540013 -49.3203125 70.640625 C-54.70395383 68.07446673 -59.1875131 65.62944838 -63 61 C-60.03 58.03 -57.06 55.06 -54 52 C-50.45101029 53.41959588 -48.27985244 54.37129581 -45.3125 56.4375 C-38.89723357 60.52874538 -31.63543937 62.83295702 -24 62 C-18.9699582 60.81545091 -13.85498894 59.59280829 -11 55 C-10.45542883 52.21982089 -10.27013196 49.74773851 -11 47 C-13.71860253 43.56597575 -15.95456993 42.40748289 -20.1875 41.5 C-21.24066406 41.26023437 -22.29382813 41.02046875 -23.37890625 40.7734375 C-25.27176374 40.36913784 -27.16467261 39.965073 -29.05810547 39.56347656 C-51.22658547 34.81559744 -51.22658547 34.81559744 -57.0625 27.8125 C-60.11836644 22.79913904 -60.53372652 17.35802935 -59.625 11.640625 C-57.62978114 4.40795664 -52.95822823 -1.38359337 -46.625 -5.375 C-30.58756201 -12.56419634 -14.53635648 -8.84199637 0 0 Z " fill="#0D0C92" transform="translate(284,303)"/>
<path d="M0 0 C3.44456115 2.70248527 5.93269994 5.29949019 8.4296875 8.90625 C7.17508021 12.67007187 5.90350138 13.15666838 2.5546875 15.15625 C1.67039062 15.69765625 0.78609375 16.2390625 -0.125 16.796875 C-2.5703125 17.90625 -2.5703125 17.90625 -5.5703125 16.90625 C-7.25848183 15.26136706 -8.92384565 13.59287458 -10.5703125 11.90625 C-15.29294765 7.65587836 -21.12841036 6.44562768 -27.40234375 6.6640625 C-35.75725407 7.59740383 -42.04922397 10.47985597 -47.5703125 16.90625 C-52.45647513 24.49750556 -53.74027199 32.390971 -52.14453125 41.27734375 C-50.24060323 48.01701533 -46.39485733 53.39525851 -40.51171875 57.2578125 C-33.23519784 61.08176867 -25.96768857 62.11779151 -18.0078125 59.65625 C-12.39665517 57.62017417 -7.85734386 55.01940989 -4.5703125 49.90625 C0.20578248 51.54803265 4.22351654 54.17171702 8.4296875 56.90625 C7.05955773 62.55803532 2.98526019 65.67445574 -1.5703125 68.90625 C-14.3422461 76.06228927 -26.23261271 77.44987425 -40.3515625 73.953125 C-45.29301636 72.34595311 -49.35677193 69.90715048 -53.5703125 66.90625 C-55.1790625 65.7615625 -55.1790625 65.7615625 -56.8203125 64.59375 C-65.27605467 56.33018378 -69.60184186 45.72732578 -70.0703125 33.90625 C-69.53958386 21.31802996 -64.66383691 10.86677083 -55.6953125 2.06640625 C-39.60083099 -11.11095048 -16.90645935 -11.56499828 0 0 Z " fill="#0C0B92" transform="translate(533.5703125,302.09375)"/>
<path d="M0 0 C0 8.25 0 16.5 0 25 C4.62 25 9.24 25 14 25 C14 29.62 14 34.24 14 39 C7.565 39.495 7.565 39.495 1 40 C0.9253106 45.10454178 0.87114539 50.20875875 0.83520508 55.3137207 C0.82020731 57.04685006 0.79980228 58.77994204 0.77368164 60.51293945 C0.73689797 63.01783525 0.72018349 65.5222252 0.70703125 68.02734375 C0.69154739 68.79022202 0.67606354 69.55310028 0.66011047 70.33909607 C0.65840054 75.92399341 1.65253011 80.90108112 4 86 C6.03611964 88.18841373 6.03611964 88.18841373 8.5 89.4375 C9.2734375 89.88996094 10.046875 90.34242188 10.84375 90.80859375 C11.5553125 91.20175781 12.266875 91.59492188 13 92 C14.485 92.99 14.485 92.99 16 94 C14.68139111 98.61513112 12.78644563 102.09897612 10 106 C0.54369297 102.49449739 -7.87820192 96.92875735 -13.08984375 88.16796875 C-15.21182369 83.11346719 -15.14170028 77.74239275 -15.11352539 72.34228516 C-15.11367142 71.60013763 -15.11381744 70.85799011 -15.1139679 70.09335327 C-15.11327539 67.65855917 -15.10551419 65.22384311 -15.09765625 62.7890625 C-15.09578972 61.09369956 -15.09436692 59.39833608 -15.09336853 57.70297241 C-15.08956189 53.25439956 -15.07974751 48.80585968 -15.06866455 44.3572998 C-15.05841051 39.81242316 -15.05386237 35.26754115 -15.04882812 30.72265625 C-15.0381235 21.81508973 -15.02106944 12.90754761 -15 4 C-13.72942818 3.52014033 -12.45853152 3.0411407 -11.1875 2.5625 C-10.47980469 2.29566406 -9.77210938 2.02882813 -9.04296875 1.75390625 C-5.72135992 0.52815003 -3.62883651 0 0 0 Z " fill="#0D0C92" transform="translate(568,271)"/>
<path d="M0 0 C-0.64399373 1.95893905 -1.29025241 3.91713364 -1.9375 5.875 C-2.47697266 7.51082031 -2.47697266 7.51082031 -3.02734375 9.1796875 C-4 12 -4 12 -5 14 C-5.58007812 13.96519531 -6.16015625 13.93039062 -6.7578125 13.89453125 C-11.97130987 13.7138655 -15.5204398 14.01362654 -20 17 C-23.50795731 20.87084944 -24.1234435 24.27783 -24.20532227 29.3894043 C-24.22526749 30.49031906 -24.24521271 31.59123383 -24.26576233 32.72550964 C-24.28247482 33.91308365 -24.29918732 35.10065765 -24.31640625 36.32421875 C-24.33718735 37.54075638 -24.35796844 38.75729401 -24.37937927 40.01069641 C-24.44484717 43.90290596 -24.50374715 47.79518385 -24.5625 51.6875 C-24.60568782 54.32357482 -24.6493022 56.95964269 -24.69335938 59.59570312 C-24.80052582 66.06373176 -24.90180126 72.53182925 -25 79 C-29.95 79 -34.9 79 -40 79 C-40.02255146 68.84733453 -40.04091534 58.69468557 -40.05181217 48.54200077 C-40.05704089 43.82820267 -40.06413834 39.11442253 -40.07543945 34.40063477 C-40.08626873 29.85544596 -40.09227692 25.31027448 -40.09487724 20.76507378 C-40.09673142 19.02705042 -40.10035189 17.28902806 -40.10573006 15.55101204 C-40.11294103 13.12521405 -40.11399092 10.69948854 -40.11352539 8.27368164 C-40.11712067 7.54791931 -40.12071594 6.82215698 -40.12442017 6.07440186 C-40.11405216 1.11405216 -40.11405216 1.11405216 -39 0 C-36.81360547 -0.07258946 -34.62499611 -0.08373783 -32.4375 -0.0625 C-30.64119141 -0.04896484 -30.64119141 -0.04896484 -28.80859375 -0.03515625 C-27.88175781 -0.02355469 -26.95492187 -0.01195312 -26 0 C-25.67 2.31 -25.34 4.62 -25 7 C-24.55269531 6.51789063 -24.10539063 6.03578125 -23.64453125 5.5390625 C-16.24136333 -2.19559056 -10.35214298 -3.66911397 0 0 Z " fill="#0E0D93" transform="translate(724,296)"/>
</svg>
